<?xml version="1.0" encoding="UTF-8" standalone="no"?>
<!DOCTYPE svg PUBLIC "-//W3C//DTD SVG 1.1//EN" "http://www.w3.org/Graphics/SVG/1.1/DTD/svg11.dtd">
<!-- Created with Vectornator (http://vectornator.io/) -->
<svg class="icon" stroke-miterlimit="10" style="fill-rule:nonzero;clip-rule:evenodd;stroke-linecap:round;stroke-linejoin:round;" version="1.1" viewBox="0 0 28 28" xml:space="preserve" xmlns="http://www.w3.org/2000/svg" xmlns:vectornator="http://vectornator.io" xmlns:xlink="http://www.w3.org/1999/xlink">
<defs/>
<clipPath id="ArtboardFrame">
<rect height="28" width="28" x="0" y="0"/>
</clipPath>
<g clip-path="url(#ArtboardFrame)" id="Untitled" vectornator:layerName="Untitled">
<path d="M28 14C28 21.732 21.732 28 14 28C6.26801 28 9.46895e-16 21.732 0 14C0 6.26801 6.26801 3.86283e-15 14 2.44249e-15C21.732 2.44249e-15 28 6.26801 28 14M14.5023 10.3355C13.1396 10.9025 10.4178 12.075 6.33675 13.853C5.67525 14.1155 5.32817 14.3733 5.2955 14.6265C5.243 15.0518 5.77675 15.2198 6.503 15.449L6.80925 15.5453C7.52325 15.778 8.48575 16.0493 8.9845 16.0598C9.4395 16.0714 9.94583 15.8848 10.5035 15.4998C14.3173 12.9261 16.2855 11.6253 16.408 11.5972C16.4955 11.5762 16.618 11.5518 16.6985 11.6252C16.779 11.6987 16.772 11.8353 16.7633 11.872C16.7108 12.0977 14.616 14.0437 13.5328 15.0518C13.195 15.3667 12.9553 15.589 12.9063 15.6398C12.7984 15.7501 12.6887 15.8586 12.5773 15.9653C11.9123 16.6058 11.4153 17.0853 12.6035 17.8693C13.1758 18.2472 13.6343 18.557 14.091 18.8685C14.588 19.208 15.085 19.5458 15.729 19.9692C15.8923 20.0766 16.0498 20.1857 16.2015 20.2965C16.7808 20.7095 17.304 21.0805 17.9463 21.021C18.3208 20.986 18.7075 20.636 18.9035 19.586C19.3673 17.1062 20.279 11.7355 20.489 9.52175C20.5022 9.33773 20.4946 9.15281 20.4663 8.9705C20.4493 8.82351 20.3782 8.68812 20.2668 8.59075C20.1073 8.48126 19.9176 8.42436 19.7243 8.428C19.1993 8.43675 18.389 8.7185 14.5023 10.3355" fill="#d1cecc" fill-rule="nonzero" opacity="1" stroke="none" vectornator:layerName="path"/>
</g>
</svg>
